<?xml version="1.0" standalone="no"?>
<!DOCTYPE svg PUBLIC "-//W3C//DTD SVG 20010904//EN"
 "http://www.w3.org/TR/2001/REC-SVG-20010904/DTD/svg10.dtd">
<svg version="1.0" xmlns="http://www.w3.org/2000/svg"
 width="260.000000pt" height="260.000000pt" viewBox="0 0 260.000000 260.000000"
 preserveAspectRatio="xMidYMid meet">
<metadata>
Created by potrace 1.14, written by Peter Selinger 2001-2017
</metadata>
<g transform="translate(0.000000,260.000000) scale(0.100000,-0.100000)"
fill="#000000" stroke="none">
<path d="M0 1300 l0 -1300 1300 0 1300 0 0 1300 0 1300 -1300 0 -1300 0 0
-1300z m599 515 l501 -200 0 -105 0 -105 -501 -200 c-275 -110 -505 -201 -510
-203 -5 -2 -9 38 -9 91 l0 94 410 159 c225 87 410 161 410 164 0 3 -184 77
-410 164 l-410 159 0 94 c0 53 4 93 9 91 5 -1 235 -93 510 -203z m1919 -1137
l3 -88 -666 0 -665 0 0 90 0 90 663 -2 662 -3 3 -87z"/>
</g>
</svg>
